<?xml version="1.0" encoding="UTF-8"?>
<svg xmlns="http://www.w3.org/2000/svg" version="1.1" viewBox="0 0 20 20">
  <defs>
    <style>
      .cls-1 {
        fill: #7a003c;
      }
    </style>
  </defs>
  <!-- Generator: Adobe Illustrator 28.7.2, SVG Export Plug-In . SVG Version: 1.2.0 Build 154)  -->
  <g>
    <g id="Layer_1">
      <g>
        <path class="cls-1" d="M10,11.8c-1.7,0-3.1-1.4-3.1-3.1s1.4-3.1,3.1-3.1,3.1,1.4,3.1,3.1-1.4,3.1-3.1,3.1ZM10,6.3c-1.3,0-2.4,1.1-2.4,2.4s1.1,2.4,2.4,2.4,2.4-1.1,2.4-2.4-1.1-2.4-2.4-2.4Z"/>
        <path class="cls-1" d="M14.8,16.5c-.7-2-2.7-3.3-4.8-3.3s-4.1,1.3-4.8,3.3l-.7-.3c.4-1.1,1.1-2.1,2.1-2.7,1-.7,2.2-1.1,3.4-1.1s2.4.4,3.4,1.1c1,.7,1.7,1.6,2.1,2.7l-.7.3Z"/>
        <path d="M10,18.6c-4.8,0-8.5-3.7-8.5-8.5S5.2,1.6,10,1.6s8.5,3.7,8.5,8.5-3.7,8.5-8.5,8.5ZM10,2.3c-4.4,0-7.8,3.4-7.8,7.8s3.4,7.8,7.8,7.8,7.8-3.4,7.8-7.8-3.4-7.8-7.8-7.8Z"/>
      </g>
    </g>
  </g>
</svg>